<svg xmlns="http://www.w3.org/2000/svg" viewBox="-155.0 -1170.5 1606 1606">
  <rect x="-155.0" y="-1170.5" width="1606" height="1606" rx="289" fill="#0d9488" />
  <g fill="white">
    <path transform="translate(0, 0) scale(1, -1)" d="M258 215Q258 186 267.0 168.0Q276 150 298 150Q310 150 325.5 155.5Q341 161 355 164Q386 170 400.5 159.0Q415 148 415 116V49Q415 12 387 5Q353 -3 324.0 -9.0Q295 -15 264 -15Q206 -15 170.0 0.5Q134 16 113.5 46.0Q93 76 85.5 119.5Q78 163 78 220V310Q78 337 48 340Q10 343 10 384V450Q10 481 25.5 490.5Q41 500 60 500H65Q74 500 88.5 506.5Q103 513 118.0 526.0Q133 539 146.5 559.0Q160 579 167 605Q173 626 184.0 637.0Q195 648 218 648Q263 648 263 603V530Q263 500 293 500H358Q408 500 408 450V390Q408 340 358 340H288Q258 340 258 310Z" />
    <path transform="translate(435, 0) scale(1, -1)" d="M40 700Q40 750 94 750H170Q220 750 220 700V236Q220 207 224.5 189.0Q229 171 236.5 161.5Q244 152 254.5 148.5Q265 145 277 145Q280 145 286.5 145.5Q293 146 310 148Q353 154 353 112V37Q353 -7 311 -11Q285 -14 271.0 -14.5Q257 -15 250 -15Q208 -15 170.0 -5.0Q132 5 103.0 29.5Q74 54 57.0 97.0Q40 140 40 206Z" />
    <path transform="translate(818, 0) scale(1, -1)" d="M234 411Q241 427 248.5 445.5Q256 464 267.5 479.5Q279 495 295.5 505.0Q312 515 337 515Q359 515 381.0 507.5Q403 500 422 492Q442 484 450.0 473.0Q458 462 458 442V354Q458 338 453.5 328.0Q449 318 443.0 312.5Q437 307 430.0 305.5Q423 304 418 304Q405 304 392.5 311.5Q380 319 366.0 328.0Q352 337 335.0 344.5Q318 352 295 352Q230 352 230 255V50Q230 0 180 0H100Q50 0 50 50V450Q50 500 100 500H192Q209 500 219.5 495.5Q230 491 230 471V462Q230 460 228.5 447.0Q227 434 222 421Q219 414 225 409Q231 404 234 411Z" />
  </g>
</svg>